<?xml version="1.0" encoding="utf-8"?>
<!-- Generator: Adobe Illustrator 24.0.1, SVG Export Plug-In . SVG Version: 6.00 Build 0)  -->
<svg version="1.1" id="Camada_1" xmlns="http://www.w3.org/2000/svg" xmlns:xlink="http://www.w3.org/1999/xlink" x="0px" y="0px"
	 viewBox="0 0 25.4 25.4" style="enable-background:new 0 0 25.4 25.4;" xml:space="preserve">
<style type="text/css">
	.st0{fill:#FFFFFF;}
	.st1{fill:#8E72DC;}
</style>
<title>Gmail icon</title>
<g>
	<path class="st0" d="M24,25.4H1.4C0.6,25.4,0,24.8,0,24V1.4C0,0.6,0.6,0,1.4,0H24c0.8,0,1.4,0.6,1.4,1.4V24
		C25.4,24.8,24.8,25.4,24,25.4z"/>
	<path class="st1" d="M24.7,6.2v13.9c0,0.9-0.7,1.6-1.6,1.6h-3.8v-9.3l-6.5,4.9l-6.5-4.9v9.3H2.3c-0.9,0-1.6-0.7-1.6-1.6
		c0,0,0,0,0,0V6.2c0-2,2.3-3.2,3.9-2l1.5,1.1l6.5,4.9l6.5-4.9l1.5-1.1C22.4,3,24.7,4.1,24.7,6.2z"/>
</g>
</svg>
