<?xml version="1.0" encoding="utf-8"?>
<!-- Generator: Adobe Illustrator 24.0.1, SVG Export Plug-In . SVG Version: 6.00 Build 0)  -->
<svg version="1.1" id="Camada_1" xmlns="http://www.w3.org/2000/svg" xmlns:xlink="http://www.w3.org/1999/xlink" x="0px" y="0px"
	 viewBox="0 0 25.4 25.4" style="enable-background:new 0 0 25.4 25.4;" xml:space="preserve">
<style type="text/css">
	.st0{fill:#FFFFFF;}
	.st1{fill:#8E72DC;}
</style>
<title>Gmail icon</title>
<g>
	<path class="st0" d="M24,25.4H1.4C0.6,25.4,0,24.8,0,24V1.4C0,0.6,0.6,0,1.4,0H24c0.8,0,1.4,0.6,1.4,1.4V24
		C25.4,24.8,24.8,25.4,24,25.4z"/>
	<path class="st1" d="M23.2,7v12.1c0,0.8-0.6,1.4-1.4,1.4h-3.3v-8.1l-5.7,4.3l-5.7-4.3v8.1H3.6c-0.8,0-1.4-0.6-1.4-1.4l0,0V7
		c0-1.7,2-2.8,3.4-1.7l1.3,1l5.7,4.3l5.7-4.3l1.3-1C21.2,4.2,23.2,5.2,23.2,7z"/>
</g>
</svg>
