<?xml version="1.0" encoding="utf-8"?>
<!-- Generator: Adobe Illustrator 24.0.1, SVG Export Plug-In . SVG Version: 6.00 Build 0)  -->
<svg version="1.1" id="Camada_1" xmlns="http://www.w3.org/2000/svg" xmlns:xlink="http://www.w3.org/1999/xlink" x="0px" y="0px"
	 viewBox="0 0 25.4 25.4" style="enable-background:new 0 0 25.4 25.4;" xml:space="preserve">
<style type="text/css">
	.st0{fill:#8E72DC;}
</style>
<title>Instagram icon</title>
<path class="st0" d="M12.7,0.7c-3.3,0-3.7,0-4.9,0.1C6.5,0.8,5.6,1,4.8,1.3C4.1,1.6,3.4,2,2.7,2.7S1.6,4,1.3,4.8
	C1,5.6,0.8,6.5,0.8,7.8C0.7,9,0.7,9.4,0.7,12.7s0,3.7,0.1,4.9c0.1,1.3,0.3,2.1,0.6,2.9C1.6,21.3,2,22,2.7,22.7
	c0.7,0.7,1.3,1.1,2.1,1.4c0.8,0.3,1.6,0.5,2.9,0.6c1.3,0.1,1.7,0.1,4.9,0.1s3.7,0,4.9-0.1c1.3-0.1,2.1-0.3,2.9-0.6
	c0.8-0.3,1.5-0.7,2.1-1.4c0.7-0.7,1.1-1.3,1.4-2.1c0.3-0.8,0.5-1.6,0.6-2.9c0.1-1.3,0.1-1.7,0.1-4.9s0-3.7-0.1-4.9
	c-0.1-1.3-0.3-2.1-0.6-2.9c-0.3-0.8-0.7-1.5-1.4-2.1C22,2,21.4,1.6,20.6,1.3c-0.8-0.3-1.6-0.5-2.9-0.6C16.4,0.7,16,0.7,12.7,0.7z
	 M12.7,2.9c3.2,0,3.6,0,4.9,0.1c1.2,0.1,1.8,0.2,2.2,0.4c0.6,0.2,1,0.5,1.4,0.9c0.4,0.4,0.7,0.8,0.9,1.4c0.2,0.4,0.4,1.1,0.4,2.2
	c0.1,1.3,0.1,1.6,0.1,4.8s0,3.6-0.1,4.9c-0.1,1.2-0.3,1.8-0.4,2.2c-0.2,0.6-0.5,1-0.9,1.4c-0.4,0.4-0.8,0.7-1.4,0.9
	c-0.4,0.2-1.1,0.4-2.2,0.4c-1.3,0.1-1.6,0.1-4.9,0.1c-3.2,0-3.6,0-4.9-0.1C6.6,22.4,6,22.2,5.6,22c-0.6-0.2-1-0.5-1.4-0.9
	c-0.4-0.4-0.7-0.8-0.9-1.4c-0.2-0.4-0.4-1.1-0.4-2.2c0-1.3-0.1-1.6-0.1-4.8c0-3.2,0-3.6,0.1-4.9C2.9,6.7,3.1,6,3.3,5.6
	c0.2-0.6,0.5-1,0.9-1.4C4.6,3.8,5,3.5,5.6,3.3C6,3.1,6.6,2.9,7.8,2.9C9.1,2.8,9.4,2.8,12.7,2.9C12.7,2.8,12.7,2.9,12.7,2.9z
	 M12.7,6.5c-3.4,0-6.2,2.8-6.2,6.2c0,3.4,2.8,6.2,6.2,6.2c3.4,0,6.2-2.8,6.2-6.2C18.9,9.3,16.1,6.5,12.7,6.5z M12.7,16.7
	c-2.2,0-4-1.8-4-4s1.8-4,4-4s4,1.8,4,4S14.9,16.7,12.7,16.7z M20.5,6.3c0,0.8-0.6,1.4-1.4,1.4c-0.8,0-1.4-0.6-1.4-1.4
	s0.6-1.4,1.4-1.4C19.9,4.9,20.5,5.5,20.5,6.3z"/>
</svg>
