<?xml version="1.0" encoding="utf-8"?>
<!-- Generator: Adobe Illustrator 24.0.1, SVG Export Plug-In . SVG Version: 6.00 Build 0)  -->
<svg version="1.1" id="Camada_1" xmlns="http://www.w3.org/2000/svg" xmlns:xlink="http://www.w3.org/1999/xlink" x="0px" y="0px"
	 viewBox="0 0 25.4 25.4" style="enable-background:new 0 0 25.4 25.4;" xml:space="preserve">
<style type="text/css">
	.st0{fill:#FFFFFF;}
	.st1{fill:#8E72DC;}
</style>
<title>Instagram icon</title>
<g>
	<path class="st0" d="M24,25.4H1.4C0.6,25.4,0,24.8,0,24V1.4C0,0.6,0.6,0,1.4,0H24c0.8,0,1.4,0.6,1.4,1.4V24
		C25.4,24.8,24.8,25.4,24,25.4z"/>
	<path class="st1" d="M12.7,4.8c-2.1,0-2.4,0-3.2,0c-0.8,0-1.4,0.2-1.9,0.4C7,5.5,6.6,5.7,6.2,6.2C5.7,6.6,5.5,7,5.3,7.6
		C5.1,8.1,4.9,8.6,4.9,9.5c0,0.8,0,1.1,0,3.2s0,2.4,0,3.2c0,0.8,0.2,1.4,0.4,1.9c0.2,0.5,0.5,1,0.9,1.4c0.4,0.4,0.9,0.7,1.4,0.9
		c0.5,0.2,1.1,0.3,1.9,0.4c0.8,0,1.1,0,3.2,0s2.4,0,3.2,0c0.8,0,1.4-0.2,1.9-0.4c0.5-0.2,1-0.5,1.4-0.9c0.4-0.4,0.7-0.9,0.9-1.4
		c0.2-0.5,0.3-1.1,0.4-1.9c0-0.8,0-1.1,0-3.2s0-2.4,0-3.2c0-0.8-0.2-1.4-0.4-1.9c-0.2-0.5-0.5-1-0.9-1.4c-0.4-0.4-0.9-0.7-1.4-0.9
		c-0.5-0.2-1.1-0.3-1.9-0.4C15.1,4.9,14.8,4.8,12.7,4.8z M12.7,6.3c2.1,0,2.3,0,3.2,0c0.8,0,1.2,0.2,1.5,0.3
		c0.4,0.1,0.6,0.3,0.9,0.6c0.3,0.3,0.4,0.5,0.6,0.9c0.1,0.3,0.2,0.7,0.3,1.5c0,0.8,0,1.1,0,3.2s0,2.3,0,3.2c0,0.8-0.2,1.2-0.3,1.5
		c-0.1,0.4-0.3,0.6-0.6,0.9c-0.3,0.3-0.5,0.4-0.9,0.6c-0.3,0.1-0.7,0.2-1.5,0.3c-0.8,0-1.1,0-3.2,0c-2.1,0-2.3,0-3.2,0
		c-0.8,0-1.2-0.2-1.5-0.3c-0.4-0.1-0.6-0.3-0.9-0.6c-0.3-0.3-0.5-0.5-0.6-0.9c-0.1-0.3-0.2-0.7-0.3-1.5c0-0.8,0-1.1,0-3.2
		c0-2.1,0-2.3,0-3.2c0-0.8,0.2-1.2,0.3-1.5c0.1-0.4,0.3-0.6,0.6-0.9C7.4,6.9,7.7,6.7,8,6.6c0.3-0.1,0.7-0.2,1.5-0.3
		C10.3,6.3,10.6,6.2,12.7,6.3C12.7,6.2,12.7,6.3,12.7,6.3z M12.7,8.7c-2.2,0-4,1.8-4,4c0,2.2,1.8,4,4,4c2.2,0,4-1.8,4-4
		C16.7,10.5,14.9,8.7,12.7,8.7z M12.7,15.3c-1.4,0-2.6-1.2-2.6-2.6s1.2-2.6,2.6-2.6s2.6,1.2,2.6,2.6S14.1,15.3,12.7,15.3z M17.8,8.5
		c0,0.5-0.4,0.9-0.9,0.9c-0.5,0-0.9-0.4-0.9-0.9s0.4-0.9,0.9-0.9C17.4,7.6,17.8,8,17.8,8.5z"/>
</g>
</svg>
